<mxfile host="app.diagrams.net" agent="Mozilla/5.0 (X11; Linux x86_64) AppleWebKit/537.36 (KHTML, like Gecko) Chrome/131.0.0.0 Safari/537.36" version="26.2.9" pages="8">
  <diagram name="intro_egg" id="T-WQhoIOxYVZdL17rC1-">
    <mxGraphModel dx="922" dy="581" grid="1" gridSize="10" guides="1" tooltips="1" connect="1" arrows="1" fold="1" page="1" pageScale="1" pageWidth="827" pageHeight="1169" math="0" shadow="0">
      <root>
        <mxCell id="0" />
        <mxCell id="1" parent="0" />
        <mxCell id="h-KT7uAJynD0g-vu8hFX-1" value="" style="rounded=0;whiteSpace=wrap;html=1;fillColor=none;dashed=1;strokeWidth=3;" vertex="1" parent="1">
          <mxGeometry x="281" y="180" width="249" height="120" as="geometry" />
        </mxCell>
        <mxCell id="h-KT7uAJynD0g-vu8hFX-2" value="" style="rounded=0;whiteSpace=wrap;html=1;fillColor=none;dashed=1;strokeWidth=3;" vertex="1" parent="1">
          <mxGeometry x="250" y="370" width="120" height="120" as="geometry" />
        </mxCell>
        <mxCell id="h-KT7uAJynD0g-vu8hFX-3" value="" style="rounded=0;whiteSpace=wrap;html=1;fillColor=none;dashed=1;strokeWidth=3;" vertex="1" parent="1">
          <mxGeometry x="414" y="368.5" width="120" height="120" as="geometry" />
        </mxCell>
        <mxCell id="h-KT7uAJynD0g-vu8hFX-4" value="" style="rounded=0;whiteSpace=wrap;html=1;fillColor=none;dashed=1;strokeWidth=3;" vertex="1" parent="1">
          <mxGeometry x="305" y="15" width="119" height="120" as="geometry" />
        </mxCell>
        <mxCell id="h-KT7uAJynD0g-vu8hFX-5" value="&lt;font style=&quot;font-size: 36px;&quot;&gt;2&lt;/font&gt;" style="whiteSpace=wrap;html=1;aspect=fixed;fillColor=none;strokeWidth=3;" vertex="1" parent="1">
          <mxGeometry x="270" y="390" width="80" height="80" as="geometry" />
        </mxCell>
        <mxCell id="h-KT7uAJynD0g-vu8hFX-6" value="&lt;font style=&quot;font-size: 36px;&quot;&gt;x&lt;/font&gt;" style="whiteSpace=wrap;html=1;aspect=fixed;fillColor=none;strokeWidth=3;" vertex="1" parent="1">
          <mxGeometry x="435" y="388.5" width="80" height="80" as="geometry" />
        </mxCell>
        <mxCell id="h-KT7uAJynD0g-vu8hFX-7" value="&lt;span style=&quot;font-size: 50px;&quot;&gt;^&lt;/span&gt;" style="whiteSpace=wrap;html=1;aspect=fixed;fillColor=none;strokeWidth=3;" vertex="1" parent="1">
          <mxGeometry x="325" y="35" width="80" height="80" as="geometry" />
        </mxCell>
        <mxCell id="h-KT7uAJynD0g-vu8hFX-8" value="&lt;font style=&quot;font-size: 50px;&quot;&gt;+&lt;/font&gt;" style="whiteSpace=wrap;html=1;aspect=fixed;fillColor=none;strokeWidth=3;" vertex="1" parent="1">
          <mxGeometry x="420" y="199" width="80" height="80" as="geometry" />
        </mxCell>
        <mxCell id="h-KT7uAJynD0g-vu8hFX-9" value="" style="endArrow=classic;html=1;rounded=0;entryX=0.408;entryY=0;entryDx=0;entryDy=0;exitX=0.75;exitY=1;exitDx=0;exitDy=0;entryPerimeter=0;curved=1;strokeWidth=3;" edge="1" parent="1" source="h-KT7uAJynD0g-vu8hFX-7" target="h-KT7uAJynD0g-vu8hFX-2">
          <mxGeometry width="50" height="50" relative="1" as="geometry">
            <mxPoint x="331" y="200" as="sourcePoint" />
            <mxPoint x="241" y="180" as="targetPoint" />
            <Array as="points">
              <mxPoint x="270" y="160" />
              <mxPoint x="220" y="230" />
              <mxPoint x="240" y="310" />
            </Array>
          </mxGeometry>
        </mxCell>
        <mxCell id="h-KT7uAJynD0g-vu8hFX-10" value="" style="endArrow=classic;html=1;rounded=0;entryX=0.478;entryY=-0.031;entryDx=0;entryDy=0;exitX=0.25;exitY=1;exitDx=0;exitDy=0;entryPerimeter=0;strokeWidth=3;" edge="1" parent="1" source="h-KT7uAJynD0g-vu8hFX-7" target="h-KT7uAJynD0g-vu8hFX-1">
          <mxGeometry width="50" height="50" relative="1" as="geometry">
            <mxPoint x="311" y="130" as="sourcePoint" />
            <mxPoint x="515.56" y="174" as="targetPoint" />
          </mxGeometry>
        </mxCell>
        <mxCell id="h-KT7uAJynD0g-vu8hFX-11" value="" style="endArrow=classic;html=1;rounded=0;entryX=0.25;entryY=0;entryDx=0;entryDy=0;exitX=0.357;exitY=1.006;exitDx=0;exitDy=0;exitPerimeter=0;strokeWidth=3;" edge="1" parent="1" source="h-KT7uAJynD0g-vu8hFX-8" target="h-KT7uAJynD0g-vu8hFX-3">
          <mxGeometry width="50" height="50" relative="1" as="geometry">
            <mxPoint x="309" y="290" as="sourcePoint" />
            <mxPoint x="299" y="390" as="targetPoint" />
          </mxGeometry>
        </mxCell>
        <mxCell id="h-KT7uAJynD0g-vu8hFX-12" value="" style="endArrow=classic;html=1;rounded=0;entryX=0.75;entryY=0;entryDx=0;entryDy=0;exitX=0.75;exitY=1;exitDx=0;exitDy=0;strokeWidth=3;" edge="1" parent="1" source="h-KT7uAJynD0g-vu8hFX-8" target="h-KT7uAJynD0g-vu8hFX-3">
          <mxGeometry width="50" height="50" relative="1" as="geometry">
            <mxPoint x="537" y="290" as="sourcePoint" />
            <mxPoint x="499" y="390" as="targetPoint" />
          </mxGeometry>
        </mxCell>
        <mxCell id="h-KT7uAJynD0g-vu8hFX-13" value="&lt;font style=&quot;font-size: 50px;&quot;&gt;×&lt;/font&gt;" style="whiteSpace=wrap;html=1;aspect=fixed;fillColor=none;strokeWidth=3;" vertex="1" parent="1">
          <mxGeometry x="301" y="200" width="80" height="80" as="geometry" />
        </mxCell>
        <mxCell id="h-KT7uAJynD0g-vu8hFX-14" value="" style="endArrow=classic;html=1;rounded=0;entryX=0.151;entryY=0.003;entryDx=0;entryDy=0;entryPerimeter=0;strokeWidth=3;" edge="1" parent="1" source="h-KT7uAJynD0g-vu8hFX-13" target="h-KT7uAJynD0g-vu8hFX-3">
          <mxGeometry width="50" height="50" relative="1" as="geometry">
            <mxPoint x="537" y="290" as="sourcePoint" />
            <mxPoint x="490" y="370" as="targetPoint" />
          </mxGeometry>
        </mxCell>
        <mxCell id="h-KT7uAJynD0g-vu8hFX-15" value="" style="endArrow=classic;html=1;rounded=0;entryX=0.688;entryY=-0.034;entryDx=0;entryDy=0;exitX=0.25;exitY=1;exitDx=0;exitDy=0;entryPerimeter=0;strokeWidth=3;" edge="1" parent="1" source="h-KT7uAJynD0g-vu8hFX-13" target="h-KT7uAJynD0g-vu8hFX-2">
          <mxGeometry width="50" height="50" relative="1" as="geometry">
            <mxPoint x="437" y="291" as="sourcePoint" />
            <mxPoint x="509" y="400" as="targetPoint" />
          </mxGeometry>
        </mxCell>
        <mxCell id="h-KT7uAJynD0g-vu8hFX-16" value="&lt;font style=&quot;font-size: 24px;&quot;&gt;2×x&lt;br&gt;&lt;/font&gt;&lt;div&gt;&lt;font style=&quot;font-size: 24px;&quot;&gt;x+x&lt;/font&gt;&lt;/div&gt;" style="rounded=0;whiteSpace=wrap;html=1;fillColor=none;strokeColor=none;" vertex="1" parent="1">
          <mxGeometry x="520" y="209" width="68" height="60" as="geometry" />
        </mxCell>
        <mxCell id="h-KT7uAJynD0g-vu8hFX-17" value="&lt;font style=&quot;font-size: 24px;&quot;&gt;(2×x)^2&lt;br&gt;&lt;/font&gt;&lt;div&gt;&lt;font style=&quot;font-size: 24px;&quot;&gt;&lt;span style=&quot;background-color: transparent; color: light-dark(rgb(0, 0, 0), rgb(255, 255, 255));&quot;&gt;(&lt;/span&gt;x+x)^2&lt;/font&gt;&lt;/div&gt;" style="rounded=0;whiteSpace=wrap;html=1;strokeColor=none;fillColor=none;align=left;" vertex="1" parent="1">
          <mxGeometry x="435" y="45" width="85" height="60" as="geometry" />
        </mxCell>
      </root>
    </mxGraphModel>
  </diagram>
  <diagram name="pat_match_1" id="Rpk39IjKwjnq2TpKVcwp">
    <mxGraphModel dx="922" dy="581" grid="1" gridSize="10" guides="1" tooltips="1" connect="1" arrows="1" fold="1" page="1" pageScale="1" pageWidth="827" pageHeight="1169" math="0" shadow="0">
      <root>
        <mxCell id="hg8tETh-0_MffrLfcn9J-0" />
        <mxCell id="hg8tETh-0_MffrLfcn9J-1" parent="hg8tETh-0_MffrLfcn9J-0" />
        <mxCell id="hg8tETh-0_MffrLfcn9J-2" value="" style="rounded=0;whiteSpace=wrap;html=1;fillColor=none;dashed=1;strokeWidth=3;" vertex="1" parent="hg8tETh-0_MffrLfcn9J-1">
          <mxGeometry x="350" y="180" width="129" height="120" as="geometry" />
        </mxCell>
        <mxCell id="hg8tETh-0_MffrLfcn9J-3" value="" style="rounded=0;whiteSpace=wrap;html=1;fillColor=none;dashed=1;strokeWidth=3;" vertex="1" parent="hg8tETh-0_MffrLfcn9J-1">
          <mxGeometry x="250" y="370" width="120" height="120" as="geometry" />
        </mxCell>
        <mxCell id="hg8tETh-0_MffrLfcn9J-4" value="" style="rounded=0;whiteSpace=wrap;html=1;fillColor=none;dashed=1;strokeWidth=3;" vertex="1" parent="hg8tETh-0_MffrLfcn9J-1">
          <mxGeometry x="414" y="368.5" width="120" height="120" as="geometry" />
        </mxCell>
        <mxCell id="hg8tETh-0_MffrLfcn9J-5" value="" style="rounded=0;whiteSpace=wrap;html=1;fillColor=none;dashed=1;strokeWidth=3;" vertex="1" parent="hg8tETh-0_MffrLfcn9J-1">
          <mxGeometry x="305" y="15" width="119" height="120" as="geometry" />
        </mxCell>
        <mxCell id="hg8tETh-0_MffrLfcn9J-6" value="&lt;font style=&quot;font-size: 36px;&quot;&gt;2&lt;/font&gt;" style="whiteSpace=wrap;html=1;aspect=fixed;fillColor=none;strokeWidth=3;" vertex="1" parent="hg8tETh-0_MffrLfcn9J-1">
          <mxGeometry x="270" y="390" width="80" height="80" as="geometry" />
        </mxCell>
        <mxCell id="hg8tETh-0_MffrLfcn9J-7" value="&lt;font style=&quot;font-size: 36px;&quot;&gt;x&lt;/font&gt;" style="whiteSpace=wrap;html=1;aspect=fixed;fillColor=none;strokeWidth=3;" vertex="1" parent="hg8tETh-0_MffrLfcn9J-1">
          <mxGeometry x="435" y="388.5" width="80" height="80" as="geometry" />
        </mxCell>
        <mxCell id="hg8tETh-0_MffrLfcn9J-8" value="&lt;span style=&quot;font-size: 50px;&quot;&gt;^&lt;/span&gt;" style="whiteSpace=wrap;html=1;aspect=fixed;fillColor=none;strokeWidth=3;" vertex="1" parent="hg8tETh-0_MffrLfcn9J-1">
          <mxGeometry x="325" y="35" width="80" height="80" as="geometry" />
        </mxCell>
        <mxCell id="hg8tETh-0_MffrLfcn9J-9" value="&lt;font style=&quot;font-size: 50px;&quot;&gt;+&lt;/font&gt;" style="whiteSpace=wrap;html=1;aspect=fixed;fillColor=none;strokeWidth=3;" vertex="1" parent="hg8tETh-0_MffrLfcn9J-1">
          <mxGeometry x="374" y="199" width="80" height="80" as="geometry" />
        </mxCell>
        <mxCell id="hg8tETh-0_MffrLfcn9J-10" value="" style="endArrow=classic;html=1;rounded=0;entryX=0.408;entryY=0;entryDx=0;entryDy=0;exitX=0.75;exitY=1;exitDx=0;exitDy=0;entryPerimeter=0;curved=1;strokeWidth=3;" edge="1" parent="hg8tETh-0_MffrLfcn9J-1" source="hg8tETh-0_MffrLfcn9J-8" target="hg8tETh-0_MffrLfcn9J-3">
          <mxGeometry width="50" height="50" relative="1" as="geometry">
            <mxPoint x="331" y="200" as="sourcePoint" />
            <mxPoint x="241" y="180" as="targetPoint" />
            <Array as="points">
              <mxPoint x="270" y="160" />
              <mxPoint x="220" y="230" />
              <mxPoint x="240" y="310" />
            </Array>
          </mxGeometry>
        </mxCell>
        <mxCell id="hg8tETh-0_MffrLfcn9J-11" value="" style="endArrow=classic;html=1;rounded=0;entryX=0.478;entryY=-0.031;entryDx=0;entryDy=0;exitX=0.25;exitY=1;exitDx=0;exitDy=0;entryPerimeter=0;strokeWidth=3;" edge="1" parent="hg8tETh-0_MffrLfcn9J-1" source="hg8tETh-0_MffrLfcn9J-8" target="hg8tETh-0_MffrLfcn9J-2">
          <mxGeometry width="50" height="50" relative="1" as="geometry">
            <mxPoint x="311" y="130" as="sourcePoint" />
            <mxPoint x="515.56" y="174" as="targetPoint" />
          </mxGeometry>
        </mxCell>
        <mxCell id="hg8tETh-0_MffrLfcn9J-12" value="" style="endArrow=classic;html=1;rounded=0;entryX=0.25;entryY=0;entryDx=0;entryDy=0;exitX=0.357;exitY=1.006;exitDx=0;exitDy=0;exitPerimeter=0;strokeWidth=3;" edge="1" parent="hg8tETh-0_MffrLfcn9J-1" source="hg8tETh-0_MffrLfcn9J-9" target="hg8tETh-0_MffrLfcn9J-4">
          <mxGeometry width="50" height="50" relative="1" as="geometry">
            <mxPoint x="309" y="290" as="sourcePoint" />
            <mxPoint x="299" y="390" as="targetPoint" />
          </mxGeometry>
        </mxCell>
        <mxCell id="hg8tETh-0_MffrLfcn9J-13" value="" style="endArrow=classic;html=1;rounded=0;entryX=0.75;entryY=0;entryDx=0;entryDy=0;exitX=0.75;exitY=1;exitDx=0;exitDy=0;strokeWidth=3;" edge="1" parent="hg8tETh-0_MffrLfcn9J-1" source="hg8tETh-0_MffrLfcn9J-9" target="hg8tETh-0_MffrLfcn9J-4">
          <mxGeometry width="50" height="50" relative="1" as="geometry">
            <mxPoint x="537" y="290" as="sourcePoint" />
            <mxPoint x="499" y="390" as="targetPoint" />
          </mxGeometry>
        </mxCell>
        <mxCell id="hg8tETh-0_MffrLfcn9J-14" value="&lt;div&gt;&lt;font style=&quot;font-size: 24px;&quot;&gt;x+x&lt;/font&gt;&lt;/div&gt;" style="rounded=0;whiteSpace=wrap;html=1;fillColor=none;strokeColor=none;" vertex="1" parent="hg8tETh-0_MffrLfcn9J-1">
          <mxGeometry x="479" y="209" width="68" height="60" as="geometry" />
        </mxCell>
        <mxCell id="hg8tETh-0_MffrLfcn9J-15" value="&lt;div&gt;&lt;font style=&quot;font-size: 24px;&quot;&gt;&lt;span style=&quot;background-color: transparent; color: light-dark(rgb(0, 0, 0), rgb(255, 255, 255));&quot;&gt;(&lt;/span&gt;x+x)^2&lt;/font&gt;&lt;/div&gt;" style="rounded=0;whiteSpace=wrap;html=1;strokeColor=none;fillColor=none;align=left;" vertex="1" parent="hg8tETh-0_MffrLfcn9J-1">
          <mxGeometry x="435" y="45" width="85" height="60" as="geometry" />
        </mxCell>
      </root>
    </mxGraphModel>
  </diagram>
  <diagram id="5GgdD24pQ5L0fF0v5Hyy" name="pat_match_2">
    <mxGraphModel dx="922" dy="581" grid="1" gridSize="10" guides="1" tooltips="1" connect="1" arrows="1" fold="1" page="1" pageScale="1" pageWidth="827" pageHeight="1169" math="0" shadow="0">
      <root>
        <mxCell id="0" />
        <mxCell id="1" parent="0" />
        <mxCell id="XPtYzOiv-F3Uxws0aEfv-1" value="&lt;div&gt;&lt;font style=&quot;font-size: 36px;&quot;&gt;&lt;font style=&quot;&quot;&gt;&lt;span style=&quot;background-color: transparent; color: light-dark(rgb(0, 0, 0), rgb(255, 255, 255));&quot;&gt;α&amp;nbsp;&lt;/span&gt;+&amp;nbsp;α =&amp;gt; 2&lt;/font&gt;&lt;span style=&quot;background-color: transparent; color: light-dark(rgb(0, 0, 0), rgb(255, 255, 255));&quot;&gt;α&lt;/span&gt;&lt;/font&gt;&lt;/div&gt;" style="rounded=0;whiteSpace=wrap;html=1;fillColor=none;strokeColor=none;" vertex="1" parent="1">
          <mxGeometry x="286" y="90" width="200" height="100" as="geometry" />
        </mxCell>
        <mxCell id="XPtYzOiv-F3Uxws0aEfv-2" value="&lt;div&gt;&lt;font style=&quot;font-size: 36px;&quot;&gt;&lt;font style=&quot;&quot;&gt;&lt;span style=&quot;background-color: transparent; color: light-dark(rgb(0, 0, 0), rgb(255, 255, 255));&quot;&gt;α&amp;nbsp;&lt;/span&gt;&lt;/font&gt;&lt;/font&gt;&lt;span style=&quot;font-size: 50px; background-color: transparent; color: light-dark(rgb(0, 0, 0), rgb(255, 255, 255));&quot;&gt;×&lt;/span&gt;&lt;font style=&quot;font-size: 36px; background-color: transparent; color: light-dark(rgb(0, 0, 0), rgb(255, 255, 255));&quot;&gt;&amp;nbsp;α =&amp;gt; &lt;/font&gt;&lt;span style=&quot;font-size: 36px; background-color: transparent; color: light-dark(rgb(0, 0, 0), rgb(255, 255, 255));&quot;&gt;α&lt;sup&gt;2&lt;/sup&gt;&lt;/span&gt;&lt;/div&gt;" style="rounded=0;whiteSpace=wrap;html=1;fillColor=none;strokeColor=none;" vertex="1" parent="1">
          <mxGeometry x="155" y="130" width="450" height="100" as="geometry" />
        </mxCell>
        <mxCell id="i-6n-ND1zs9c6expSWpn-1" value="&lt;span style=&quot;forced-color-adjust: none; color: light-dark(rgb(0, 0, 0), rgb(255, 255, 255)); font-family: Helvetica; font-style: normal; font-variant-ligatures: normal; font-variant-caps: normal; font-weight: 400; letter-spacing: normal; orphans: 2; text-align: center; text-indent: 0px; text-transform: none; widows: 2; word-spacing: 0px; -webkit-text-stroke-width: 0px; white-space: normal; background-color: transparent; text-decoration-thickness: initial; text-decoration-style: initial; text-decoration-color: initial; font-size: 50px;&quot;&gt;&lt;span style=&quot;font-size: 36px;&quot;&gt;α&lt;/span&gt;×&lt;/span&gt;&lt;span style=&quot;forced-color-adjust: none; color: light-dark(rgb(0, 0, 0), rgb(255, 255, 255)); font-family: Helvetica; font-style: normal; font-variant-ligatures: normal; font-variant-caps: normal; font-weight: 400; letter-spacing: normal; orphans: 2; text-align: center; text-indent: 0px; text-transform: none; widows: 2; word-spacing: 0px; -webkit-text-stroke-width: 0px; white-space: normal; background-color: transparent; text-decoration-thickness: initial; text-decoration-style: initial; text-decoration-color: initial; font-size: 36px;&quot;&gt;(&lt;/span&gt;&lt;span style=&quot;forced-color-adjust: none; color: light-dark(rgb(0, 0, 0), rgb(255, 255, 255)); font-family: Helvetica; font-style: normal; font-variant-ligatures: normal; font-variant-caps: normal; font-weight: 400; letter-spacing: normal; orphans: 2; text-align: center; text-indent: 0px; text-transform: none; widows: 2; word-spacing: 0px; -webkit-text-stroke-width: 0px; white-space: normal; background-color: transparent; text-decoration-thickness: initial; text-decoration-style: initial; text-decoration-color: initial; font-size: 36px;&quot;&gt;β +&amp;nbsp;&lt;/span&gt;&lt;span style=&quot;forced-color-adjust: none; color: light-dark(rgb(0, 0, 0), rgb(255, 255, 255)); font-family: Helvetica; font-style: normal; font-variant-ligatures: normal; font-variant-caps: normal; font-weight: 400; letter-spacing: normal; orphans: 2; text-align: center; text-indent: 0px; text-transform: none; widows: 2; word-spacing: 0px; -webkit-text-stroke-width: 0px; white-space: normal; background-color: transparent; text-decoration-thickness: initial; text-decoration-style: initial; text-decoration-color: initial; font-size: 36px;&quot;&gt;γ) =&amp;gt;&amp;nbsp;&lt;/span&gt;&lt;span style=&quot;forced-color-adjust: none; color: light-dark(rgb(0, 0, 0), rgb(255, 255, 255)); font-family: Helvetica; font-style: normal; font-variant-ligatures: normal; font-variant-caps: normal; font-weight: 400; letter-spacing: normal; orphans: 2; text-align: center; text-indent: 0px; text-transform: none; widows: 2; word-spacing: 0px; -webkit-text-stroke-width: 0px; white-space: normal; background-color: transparent; text-decoration-thickness: initial; text-decoration-style: initial; text-decoration-color: initial; font-size: 36px;&quot;&gt;α&amp;nbsp;&lt;/span&gt;&lt;span style=&quot;forced-color-adjust: none; color: light-dark(rgb(0, 0, 0), rgb(255, 255, 255)); font-family: Helvetica; font-style: normal; font-variant-ligatures: normal; font-variant-caps: normal; font-weight: 400; letter-spacing: normal; orphans: 2; text-align: center; text-indent: 0px; text-transform: none; widows: 2; word-spacing: 0px; -webkit-text-stroke-width: 0px; white-space: normal; background-color: transparent; text-decoration-thickness: initial; text-decoration-style: initial; text-decoration-color: initial; font-size: 50px;&quot;&gt;×&lt;/span&gt;&lt;span style=&quot;forced-color-adjust: none; color: light-dark(rgb(0, 0, 0), rgb(255, 255, 255)); font-family: Helvetica; font-style: normal; font-variant-ligatures: normal; font-variant-caps: normal; font-weight: 400; letter-spacing: normal; orphans: 2; text-align: center; text-indent: 0px; text-transform: none; widows: 2; word-spacing: 0px; -webkit-text-stroke-width: 0px; white-space: normal; background-color: transparent; text-decoration-thickness: initial; text-decoration-style: initial; text-decoration-color: initial; font-size: 36px;&quot;&gt;β +&amp;nbsp;&lt;/span&gt;&lt;span style=&quot;forced-color-adjust: none; color: light-dark(rgb(0, 0, 0), rgb(255, 255, 255)); font-family: Helvetica; font-style: normal; font-variant-ligatures: normal; font-variant-caps: normal; font-weight: 400; letter-spacing: normal; orphans: 2; text-align: center; text-indent: 0px; text-transform: none; widows: 2; word-spacing: 0px; -webkit-text-stroke-width: 0px; white-space: normal; background-color: transparent; text-decoration-thickness: initial; text-decoration-style: initial; text-decoration-color: initial; font-size: 36px;&quot;&gt;α&amp;nbsp;&lt;/span&gt;&lt;span style=&quot;forced-color-adjust: none; color: light-dark(rgb(0, 0, 0), rgb(255, 255, 255)); font-family: Helvetica; font-style: normal; font-variant-ligatures: normal; font-variant-caps: normal; font-weight: 400; letter-spacing: normal; orphans: 2; text-align: center; text-indent: 0px; text-transform: none; widows: 2; word-spacing: 0px; -webkit-text-stroke-width: 0px; white-space: normal; background-color: transparent; text-decoration-thickness: initial; text-decoration-style: initial; text-decoration-color: initial; font-size: 50px;&quot;&gt;×&lt;/span&gt;&lt;span style=&quot;forced-color-adjust: none; color: light-dark(rgb(0, 0, 0), rgb(255, 255, 255)); font-family: Helvetica; font-style: normal; font-variant-ligatures: normal; font-variant-caps: normal; font-weight: 400; letter-spacing: normal; orphans: 2; text-align: center; text-indent: 0px; text-transform: none; widows: 2; word-spacing: 0px; -webkit-text-stroke-width: 0px; white-space: normal; background-color: transparent; text-decoration-thickness: initial; text-decoration-style: initial; text-decoration-color: initial; font-size: 36px;&quot;&gt;γ&lt;/span&gt;" style="text;whiteSpace=wrap;html=1;" vertex="1" parent="1">
          <mxGeometry x="219" y="190" width="460" height="80" as="geometry" />
        </mxCell>
      </root>
    </mxGraphModel>
  </diagram>
  <diagram name="pat_match_3" id="T65yShzy689f3TyaDrhQ">
    <mxGraphModel dx="922" dy="581" grid="1" gridSize="10" guides="1" tooltips="1" connect="1" arrows="1" fold="1" page="1" pageScale="1" pageWidth="827" pageHeight="1169" math="0" shadow="0">
      <root>
        <mxCell id="E_k0I_p960uKVwewBnyU-0" />
        <mxCell id="E_k0I_p960uKVwewBnyU-1" parent="E_k0I_p960uKVwewBnyU-0" />
        <mxCell id="E_k0I_p960uKVwewBnyU-2" value="" style="rounded=0;whiteSpace=wrap;html=1;fillColor=none;dashed=1;strokeWidth=3;" vertex="1" parent="E_k0I_p960uKVwewBnyU-1">
          <mxGeometry x="350" y="180" width="129" height="120" as="geometry" />
        </mxCell>
        <mxCell id="E_k0I_p960uKVwewBnyU-3" value="" style="rounded=0;whiteSpace=wrap;html=1;fillColor=none;dashed=1;strokeWidth=3;" vertex="1" parent="E_k0I_p960uKVwewBnyU-1">
          <mxGeometry x="250" y="370" width="120" height="120" as="geometry" />
        </mxCell>
        <mxCell id="E_k0I_p960uKVwewBnyU-4" value="" style="rounded=0;whiteSpace=wrap;html=1;fillColor=none;dashed=1;strokeWidth=3;" vertex="1" parent="E_k0I_p960uKVwewBnyU-1">
          <mxGeometry x="414" y="368.5" width="120" height="120" as="geometry" />
        </mxCell>
        <mxCell id="E_k0I_p960uKVwewBnyU-5" value="" style="rounded=0;whiteSpace=wrap;html=1;fillColor=none;dashed=1;strokeWidth=3;" vertex="1" parent="E_k0I_p960uKVwewBnyU-1">
          <mxGeometry x="305" y="15" width="119" height="120" as="geometry" />
        </mxCell>
        <mxCell id="E_k0I_p960uKVwewBnyU-6" value="&lt;font style=&quot;font-size: 36px;&quot;&gt;2&lt;/font&gt;" style="whiteSpace=wrap;html=1;aspect=fixed;fillColor=none;strokeWidth=3;" vertex="1" parent="E_k0I_p960uKVwewBnyU-1">
          <mxGeometry x="270" y="390" width="80" height="80" as="geometry" />
        </mxCell>
        <mxCell id="E_k0I_p960uKVwewBnyU-7" value="&lt;font style=&quot;font-size: 36px;&quot;&gt;x&lt;/font&gt;" style="whiteSpace=wrap;html=1;aspect=fixed;fillColor=none;strokeWidth=3;" vertex="1" parent="E_k0I_p960uKVwewBnyU-1">
          <mxGeometry x="435" y="388.5" width="80" height="80" as="geometry" />
        </mxCell>
        <mxCell id="E_k0I_p960uKVwewBnyU-8" value="&lt;span style=&quot;font-size: 50px;&quot;&gt;^&lt;/span&gt;" style="whiteSpace=wrap;html=1;aspect=fixed;fillColor=none;strokeWidth=3;" vertex="1" parent="E_k0I_p960uKVwewBnyU-1">
          <mxGeometry x="325" y="35" width="80" height="80" as="geometry" />
        </mxCell>
        <mxCell id="E_k0I_p960uKVwewBnyU-9" value="&lt;font style=&quot;font-size: 50px;&quot;&gt;+&lt;/font&gt;" style="whiteSpace=wrap;html=1;aspect=fixed;fillColor=none;strokeWidth=3;" vertex="1" parent="E_k0I_p960uKVwewBnyU-1">
          <mxGeometry x="374" y="199" width="80" height="80" as="geometry" />
        </mxCell>
        <mxCell id="E_k0I_p960uKVwewBnyU-10" value="" style="endArrow=classic;html=1;rounded=0;entryX=0.408;entryY=0;entryDx=0;entryDy=0;exitX=0.75;exitY=1;exitDx=0;exitDy=0;entryPerimeter=0;curved=1;strokeWidth=3;" edge="1" parent="E_k0I_p960uKVwewBnyU-1" source="E_k0I_p960uKVwewBnyU-8" target="E_k0I_p960uKVwewBnyU-3">
          <mxGeometry width="50" height="50" relative="1" as="geometry">
            <mxPoint x="331" y="200" as="sourcePoint" />
            <mxPoint x="241" y="180" as="targetPoint" />
            <Array as="points">
              <mxPoint x="270" y="160" />
              <mxPoint x="220" y="230" />
              <mxPoint x="240" y="310" />
            </Array>
          </mxGeometry>
        </mxCell>
        <mxCell id="E_k0I_p960uKVwewBnyU-11" value="" style="endArrow=classic;html=1;rounded=0;entryX=0.478;entryY=-0.031;entryDx=0;entryDy=0;exitX=0.25;exitY=1;exitDx=0;exitDy=0;entryPerimeter=0;strokeWidth=3;" edge="1" parent="E_k0I_p960uKVwewBnyU-1" source="E_k0I_p960uKVwewBnyU-8" target="E_k0I_p960uKVwewBnyU-2">
          <mxGeometry width="50" height="50" relative="1" as="geometry">
            <mxPoint x="311" y="130" as="sourcePoint" />
            <mxPoint x="515.56" y="174" as="targetPoint" />
          </mxGeometry>
        </mxCell>
        <mxCell id="E_k0I_p960uKVwewBnyU-12" value="" style="endArrow=classic;html=1;rounded=0;entryX=0.25;entryY=0;entryDx=0;entryDy=0;exitX=0.357;exitY=1.006;exitDx=0;exitDy=0;exitPerimeter=0;strokeWidth=3;" edge="1" parent="E_k0I_p960uKVwewBnyU-1" source="E_k0I_p960uKVwewBnyU-9" target="E_k0I_p960uKVwewBnyU-4">
          <mxGeometry width="50" height="50" relative="1" as="geometry">
            <mxPoint x="309" y="290" as="sourcePoint" />
            <mxPoint x="299" y="390" as="targetPoint" />
          </mxGeometry>
        </mxCell>
        <mxCell id="E_k0I_p960uKVwewBnyU-13" value="" style="endArrow=classic;html=1;rounded=0;entryX=0.75;entryY=0;entryDx=0;entryDy=0;exitX=0.75;exitY=1;exitDx=0;exitDy=0;strokeWidth=3;" edge="1" parent="E_k0I_p960uKVwewBnyU-1" source="E_k0I_p960uKVwewBnyU-9" target="E_k0I_p960uKVwewBnyU-4">
          <mxGeometry width="50" height="50" relative="1" as="geometry">
            <mxPoint x="537" y="290" as="sourcePoint" />
            <mxPoint x="499" y="390" as="targetPoint" />
          </mxGeometry>
        </mxCell>
        <mxCell id="E_k0I_p960uKVwewBnyU-14" value="&lt;div&gt;&lt;font style=&quot;font-size: 24px;&quot;&gt;x+x&lt;/font&gt;&lt;/div&gt;" style="rounded=0;whiteSpace=wrap;html=1;fillColor=none;strokeColor=none;" vertex="1" parent="E_k0I_p960uKVwewBnyU-1">
          <mxGeometry x="479" y="209" width="68" height="60" as="geometry" />
        </mxCell>
        <mxCell id="E_k0I_p960uKVwewBnyU-15" value="&lt;div&gt;&lt;font style=&quot;font-size: 24px;&quot;&gt;&lt;span style=&quot;background-color: transparent; color: light-dark(rgb(0, 0, 0), rgb(255, 255, 255));&quot;&gt;(&lt;/span&gt;x+x)^2&lt;/font&gt;&lt;/div&gt;" style="rounded=0;whiteSpace=wrap;html=1;strokeColor=none;fillColor=none;align=left;" vertex="1" parent="E_k0I_p960uKVwewBnyU-1">
          <mxGeometry x="435" y="45" width="85" height="60" as="geometry" />
        </mxCell>
        <mxCell id="RWEfo9JE6KzamVSSGYYd-0" value="&lt;div&gt;&lt;font style=&quot;font-size: 36px;&quot;&gt;&lt;font style=&quot;&quot;&gt;&lt;span style=&quot;background-color: transparent; color: light-dark(rgb(0, 0, 0), rgb(255, 255, 255));&quot;&gt;α&amp;nbsp;&lt;/span&gt;+&amp;nbsp;α =&amp;gt; 2&lt;/font&gt;&lt;span style=&quot;background-color: transparent; color: light-dark(rgb(0, 0, 0), rgb(255, 255, 255));&quot;&gt;α&lt;/span&gt;&lt;/font&gt;&lt;/div&gt;" style="rounded=0;whiteSpace=wrap;html=1;fillColor=none;strokeColor=none;" vertex="1" parent="E_k0I_p960uKVwewBnyU-1">
          <mxGeometry x="470" y="268.5" width="200" height="100" as="geometry" />
        </mxCell>
        <mxCell id="RWEfo9JE6KzamVSSGYYd-1" value="&lt;div style=&quot;&quot;&gt;&lt;span style=&quot;background-color: transparent;&quot;&gt;&lt;font style=&quot;font-size: 30px;&quot;&gt;α&lt;/font&gt;&lt;/span&gt;&lt;/div&gt;" style="text;whiteSpace=wrap;html=1;strokeColor=#36393d;align=center;verticalAlign=middle;fillColor=#E5E2DD;fontColor=#696969;fontStyle=1" vertex="1" parent="E_k0I_p960uKVwewBnyU-1">
          <mxGeometry x="493" y="368.5" width="40" height="40" as="geometry" />
        </mxCell>
      </root>
    </mxGraphModel>
  </diagram>
  <diagram name="pat_match_4" id="RsVbq2bayCBxHR1jnuIL">
    <mxGraphModel dx="922" dy="581" grid="1" gridSize="10" guides="1" tooltips="1" connect="1" arrows="1" fold="1" page="1" pageScale="1" pageWidth="827" pageHeight="1169" math="0" shadow="0">
      <root>
        <mxCell id="Z8xObx0dlHE40UL_IaS1-0" />
        <mxCell id="Z8xObx0dlHE40UL_IaS1-1" parent="Z8xObx0dlHE40UL_IaS1-0" />
        <mxCell id="K83j1ThD6sdJxoOw9vhq-1" value="" style="rounded=0;whiteSpace=wrap;html=1;fillColor=none;dashed=1;strokeWidth=3;" vertex="1" parent="Z8xObx0dlHE40UL_IaS1-1">
          <mxGeometry x="386" y="181" width="118" height="120" as="geometry" />
        </mxCell>
        <mxCell id="Z8xObx0dlHE40UL_IaS1-2" value="" style="rounded=0;whiteSpace=wrap;html=1;fillColor=none;dashed=1;strokeWidth=3;" vertex="1" parent="Z8xObx0dlHE40UL_IaS1-1">
          <mxGeometry x="259" y="180" width="118" height="120" as="geometry" />
        </mxCell>
        <mxCell id="Z8xObx0dlHE40UL_IaS1-3" value="" style="rounded=0;whiteSpace=wrap;html=1;fillColor=none;dashed=1;strokeWidth=3;" vertex="1" parent="Z8xObx0dlHE40UL_IaS1-1">
          <mxGeometry x="250" y="370" width="120" height="120" as="geometry" />
        </mxCell>
        <mxCell id="Z8xObx0dlHE40UL_IaS1-4" value="" style="rounded=0;whiteSpace=wrap;html=1;fillColor=none;dashed=1;strokeWidth=3;" vertex="1" parent="Z8xObx0dlHE40UL_IaS1-1">
          <mxGeometry x="414" y="368.5" width="120" height="120" as="geometry" />
        </mxCell>
        <mxCell id="Z8xObx0dlHE40UL_IaS1-5" value="" style="rounded=0;whiteSpace=wrap;html=1;fillColor=none;dashed=1;strokeWidth=3;" vertex="1" parent="Z8xObx0dlHE40UL_IaS1-1">
          <mxGeometry x="305" y="15" width="119" height="120" as="geometry" />
        </mxCell>
        <mxCell id="Z8xObx0dlHE40UL_IaS1-6" value="&lt;font style=&quot;font-size: 36px;&quot;&gt;2&lt;/font&gt;" style="whiteSpace=wrap;html=1;aspect=fixed;fillColor=none;strokeWidth=3;" vertex="1" parent="Z8xObx0dlHE40UL_IaS1-1">
          <mxGeometry x="270" y="390" width="80" height="80" as="geometry" />
        </mxCell>
        <mxCell id="Z8xObx0dlHE40UL_IaS1-7" value="&lt;font style=&quot;font-size: 36px;&quot;&gt;x&lt;/font&gt;" style="whiteSpace=wrap;html=1;aspect=fixed;fillColor=none;strokeWidth=3;" vertex="1" parent="Z8xObx0dlHE40UL_IaS1-1">
          <mxGeometry x="435" y="388.5" width="80" height="80" as="geometry" />
        </mxCell>
        <mxCell id="Z8xObx0dlHE40UL_IaS1-8" value="&lt;span style=&quot;font-size: 50px;&quot;&gt;^&lt;/span&gt;" style="whiteSpace=wrap;html=1;aspect=fixed;fillColor=none;strokeWidth=3;" vertex="1" parent="Z8xObx0dlHE40UL_IaS1-1">
          <mxGeometry x="325" y="35" width="80" height="80" as="geometry" />
        </mxCell>
        <mxCell id="Z8xObx0dlHE40UL_IaS1-9" value="&lt;font style=&quot;font-size: 50px;&quot;&gt;+&lt;/font&gt;" style="whiteSpace=wrap;html=1;aspect=fixed;fillColor=none;strokeWidth=3;" vertex="1" parent="Z8xObx0dlHE40UL_IaS1-1">
          <mxGeometry x="401" y="199" width="80" height="80" as="geometry" />
        </mxCell>
        <mxCell id="Z8xObx0dlHE40UL_IaS1-10" value="" style="endArrow=classic;html=1;rounded=0;entryX=0.408;entryY=0;entryDx=0;entryDy=0;exitX=0.75;exitY=1;exitDx=0;exitDy=0;entryPerimeter=0;curved=1;strokeWidth=3;" edge="1" parent="Z8xObx0dlHE40UL_IaS1-1" source="Z8xObx0dlHE40UL_IaS1-8" target="Z8xObx0dlHE40UL_IaS1-3">
          <mxGeometry width="50" height="50" relative="1" as="geometry">
            <mxPoint x="331" y="200" as="sourcePoint" />
            <mxPoint x="241" y="180" as="targetPoint" />
            <Array as="points">
              <mxPoint x="270" y="160" />
              <mxPoint x="220" y="230" />
              <mxPoint x="240" y="310" />
            </Array>
          </mxGeometry>
        </mxCell>
        <mxCell id="Z8xObx0dlHE40UL_IaS1-11" value="" style="endArrow=classic;html=1;rounded=0;entryX=0.407;entryY=-0.018;entryDx=0;entryDy=0;exitX=0.25;exitY=1;exitDx=0;exitDy=0;entryPerimeter=0;strokeWidth=3;" edge="1" parent="Z8xObx0dlHE40UL_IaS1-1" source="Z8xObx0dlHE40UL_IaS1-8" target="K83j1ThD6sdJxoOw9vhq-1">
          <mxGeometry width="50" height="50" relative="1" as="geometry">
            <mxPoint x="311" y="130" as="sourcePoint" />
            <mxPoint x="515.56" y="174" as="targetPoint" />
          </mxGeometry>
        </mxCell>
        <mxCell id="Z8xObx0dlHE40UL_IaS1-12" value="" style="endArrow=classic;html=1;rounded=0;entryX=0.25;entryY=0;entryDx=0;entryDy=0;exitX=0.357;exitY=1.006;exitDx=0;exitDy=0;exitPerimeter=0;strokeWidth=3;" edge="1" parent="Z8xObx0dlHE40UL_IaS1-1" source="Z8xObx0dlHE40UL_IaS1-9" target="Z8xObx0dlHE40UL_IaS1-4">
          <mxGeometry width="50" height="50" relative="1" as="geometry">
            <mxPoint x="309" y="290" as="sourcePoint" />
            <mxPoint x="299" y="390" as="targetPoint" />
          </mxGeometry>
        </mxCell>
        <mxCell id="Z8xObx0dlHE40UL_IaS1-13" value="" style="endArrow=classic;html=1;rounded=0;entryX=0.75;entryY=0;entryDx=0;entryDy=0;exitX=0.75;exitY=1;exitDx=0;exitDy=0;strokeWidth=3;" edge="1" parent="Z8xObx0dlHE40UL_IaS1-1" source="Z8xObx0dlHE40UL_IaS1-9" target="Z8xObx0dlHE40UL_IaS1-4">
          <mxGeometry width="50" height="50" relative="1" as="geometry">
            <mxPoint x="537" y="290" as="sourcePoint" />
            <mxPoint x="499" y="390" as="targetPoint" />
          </mxGeometry>
        </mxCell>
        <mxCell id="Z8xObx0dlHE40UL_IaS1-14" value="&lt;div&gt;&lt;font style=&quot;font-size: 24px;&quot;&gt;x+x&lt;/font&gt;&lt;/div&gt;" style="rounded=0;whiteSpace=wrap;html=1;fillColor=none;strokeColor=none;" vertex="1" parent="Z8xObx0dlHE40UL_IaS1-1">
          <mxGeometry x="501" y="209" width="68" height="60" as="geometry" />
        </mxCell>
        <mxCell id="Z8xObx0dlHE40UL_IaS1-15" value="&lt;div&gt;&lt;font style=&quot;font-size: 24px;&quot;&gt;&lt;span style=&quot;background-color: transparent; color: light-dark(rgb(0, 0, 0), rgb(255, 255, 255));&quot;&gt;(&lt;/span&gt;x+x)^2&lt;/font&gt;&lt;/div&gt;" style="rounded=0;whiteSpace=wrap;html=1;strokeColor=none;fillColor=none;align=left;" vertex="1" parent="Z8xObx0dlHE40UL_IaS1-1">
          <mxGeometry x="435" y="45" width="85" height="60" as="geometry" />
        </mxCell>
        <mxCell id="Z8xObx0dlHE40UL_IaS1-17" value="&lt;div style=&quot;&quot;&gt;&lt;span style=&quot;background-color: transparent;&quot;&gt;&lt;font style=&quot;font-size: 30px;&quot;&gt;α&lt;/font&gt;&lt;/span&gt;&lt;/div&gt;" style="text;whiteSpace=wrap;html=1;strokeColor=#36393d;align=center;verticalAlign=middle;fillColor=#E5E2DD;fontColor=#696969;fontStyle=1" vertex="1" parent="Z8xObx0dlHE40UL_IaS1-1">
          <mxGeometry x="493" y="368.5" width="40" height="40" as="geometry" />
        </mxCell>
        <mxCell id="MaQaZ_eQUw58W5JpWkVL-0" value="&lt;font style=&quot;font-size: 50px;&quot;&gt;×&lt;/font&gt;" style="whiteSpace=wrap;html=1;aspect=fixed;fillColor=none;strokeWidth=3;" vertex="1" parent="Z8xObx0dlHE40UL_IaS1-1">
          <mxGeometry x="280" y="200" width="80" height="80" as="geometry" />
        </mxCell>
        <mxCell id="MaQaZ_eQUw58W5JpWkVL-2" value="" style="endArrow=classic;html=1;rounded=0;strokeWidth=3;" edge="1" parent="Z8xObx0dlHE40UL_IaS1-1" source="MaQaZ_eQUw58W5JpWkVL-0" target="Z8xObx0dlHE40UL_IaS1-3">
          <mxGeometry width="50" height="50" relative="1" as="geometry">
            <mxPoint x="320" y="290" as="sourcePoint" />
            <mxPoint x="339" y="380" as="targetPoint" />
          </mxGeometry>
        </mxCell>
        <mxCell id="MaQaZ_eQUw58W5JpWkVL-3" value="" style="endArrow=classic;html=1;rounded=0;exitX=0.615;exitY=0.997;exitDx=0;exitDy=0;exitPerimeter=0;strokeWidth=3;entryX=0.25;entryY=0;entryDx=0;entryDy=0;" edge="1" parent="Z8xObx0dlHE40UL_IaS1-1" source="MaQaZ_eQUw58W5JpWkVL-0" target="Z8xObx0dlHE40UL_IaS1-4">
          <mxGeometry width="50" height="50" relative="1" as="geometry">
            <mxPoint x="435" y="289" as="sourcePoint" />
            <mxPoint x="440" y="360" as="targetPoint" />
          </mxGeometry>
        </mxCell>
        <mxCell id="4o2ngXFpp9u7M1aBTrI9-0" value="&lt;div&gt;&lt;font style=&quot;font-size: 24px;&quot;&gt;2x&lt;/font&gt;&lt;/div&gt;" style="rounded=0;whiteSpace=wrap;html=1;fillColor=none;strokeColor=none;" vertex="1" parent="Z8xObx0dlHE40UL_IaS1-1">
          <mxGeometry x="212" y="209" width="68" height="60" as="geometry" />
        </mxCell>
      </root>
    </mxGraphModel>
  </diagram>
  <diagram name="pat_match_5" id="9PSjVzwA7-ZcJUlb-mrM">
    <mxGraphModel dx="922" dy="581" grid="1" gridSize="10" guides="1" tooltips="1" connect="1" arrows="1" fold="1" page="1" pageScale="1" pageWidth="827" pageHeight="1169" math="0" shadow="0">
      <root>
        <mxCell id="7-7wGMtZJuOutos0tf0i-0" />
        <mxCell id="7-7wGMtZJuOutos0tf0i-1" parent="7-7wGMtZJuOutos0tf0i-0" />
        <mxCell id="7-7wGMtZJuOutos0tf0i-3" value="" style="rounded=0;whiteSpace=wrap;html=1;fillColor=none;dashed=1;strokeWidth=3;" vertex="1" parent="7-7wGMtZJuOutos0tf0i-1">
          <mxGeometry x="259" y="180" width="241" height="120" as="geometry" />
        </mxCell>
        <mxCell id="7-7wGMtZJuOutos0tf0i-4" value="" style="rounded=0;whiteSpace=wrap;html=1;fillColor=none;dashed=1;strokeWidth=3;" vertex="1" parent="7-7wGMtZJuOutos0tf0i-1">
          <mxGeometry x="250" y="370" width="120" height="120" as="geometry" />
        </mxCell>
        <mxCell id="7-7wGMtZJuOutos0tf0i-5" value="" style="rounded=0;whiteSpace=wrap;html=1;fillColor=none;dashed=1;strokeWidth=3;" vertex="1" parent="7-7wGMtZJuOutos0tf0i-1">
          <mxGeometry x="414" y="368.5" width="120" height="120" as="geometry" />
        </mxCell>
        <mxCell id="7-7wGMtZJuOutos0tf0i-6" value="" style="rounded=0;whiteSpace=wrap;html=1;fillColor=none;dashed=1;strokeWidth=3;" vertex="1" parent="7-7wGMtZJuOutos0tf0i-1">
          <mxGeometry x="305" y="15" width="119" height="120" as="geometry" />
        </mxCell>
        <mxCell id="7-7wGMtZJuOutos0tf0i-7" value="&lt;font style=&quot;font-size: 36px;&quot;&gt;2&lt;/font&gt;" style="whiteSpace=wrap;html=1;aspect=fixed;fillColor=none;strokeWidth=3;" vertex="1" parent="7-7wGMtZJuOutos0tf0i-1">
          <mxGeometry x="270" y="390" width="80" height="80" as="geometry" />
        </mxCell>
        <mxCell id="7-7wGMtZJuOutos0tf0i-8" value="&lt;font style=&quot;font-size: 36px;&quot;&gt;x&lt;/font&gt;" style="whiteSpace=wrap;html=1;aspect=fixed;fillColor=none;strokeWidth=3;" vertex="1" parent="7-7wGMtZJuOutos0tf0i-1">
          <mxGeometry x="435" y="388.5" width="80" height="80" as="geometry" />
        </mxCell>
        <mxCell id="7-7wGMtZJuOutos0tf0i-9" value="&lt;span style=&quot;font-size: 50px;&quot;&gt;^&lt;/span&gt;" style="whiteSpace=wrap;html=1;aspect=fixed;fillColor=none;strokeWidth=3;" vertex="1" parent="7-7wGMtZJuOutos0tf0i-1">
          <mxGeometry x="325" y="35" width="80" height="80" as="geometry" />
        </mxCell>
        <mxCell id="7-7wGMtZJuOutos0tf0i-10" value="&lt;font style=&quot;font-size: 50px;&quot;&gt;+&lt;/font&gt;" style="whiteSpace=wrap;html=1;aspect=fixed;fillColor=none;strokeWidth=3;" vertex="1" parent="7-7wGMtZJuOutos0tf0i-1">
          <mxGeometry x="401" y="199" width="80" height="80" as="geometry" />
        </mxCell>
        <mxCell id="7-7wGMtZJuOutos0tf0i-11" value="" style="endArrow=classic;html=1;rounded=0;entryX=0.408;entryY=0;entryDx=0;entryDy=0;exitX=0.75;exitY=1;exitDx=0;exitDy=0;entryPerimeter=0;curved=1;strokeWidth=3;" edge="1" parent="7-7wGMtZJuOutos0tf0i-1" source="7-7wGMtZJuOutos0tf0i-9" target="7-7wGMtZJuOutos0tf0i-4">
          <mxGeometry width="50" height="50" relative="1" as="geometry">
            <mxPoint x="331" y="200" as="sourcePoint" />
            <mxPoint x="241" y="180" as="targetPoint" />
            <Array as="points">
              <mxPoint x="270" y="160" />
              <mxPoint x="220" y="230" />
              <mxPoint x="240" y="310" />
            </Array>
          </mxGeometry>
        </mxCell>
        <mxCell id="7-7wGMtZJuOutos0tf0i-12" value="" style="endArrow=classic;html=1;rounded=0;entryX=0.478;entryY=-0.031;entryDx=0;entryDy=0;exitX=0.25;exitY=1;exitDx=0;exitDy=0;entryPerimeter=0;strokeWidth=3;" edge="1" parent="7-7wGMtZJuOutos0tf0i-1" source="7-7wGMtZJuOutos0tf0i-9" target="7-7wGMtZJuOutos0tf0i-3">
          <mxGeometry width="50" height="50" relative="1" as="geometry">
            <mxPoint x="311" y="130" as="sourcePoint" />
            <mxPoint x="515.56" y="174" as="targetPoint" />
          </mxGeometry>
        </mxCell>
        <mxCell id="7-7wGMtZJuOutos0tf0i-13" value="" style="endArrow=classic;html=1;rounded=0;entryX=0.25;entryY=0;entryDx=0;entryDy=0;exitX=0.357;exitY=1.006;exitDx=0;exitDy=0;exitPerimeter=0;strokeWidth=3;" edge="1" parent="7-7wGMtZJuOutos0tf0i-1" source="7-7wGMtZJuOutos0tf0i-10" target="7-7wGMtZJuOutos0tf0i-5">
          <mxGeometry width="50" height="50" relative="1" as="geometry">
            <mxPoint x="309" y="290" as="sourcePoint" />
            <mxPoint x="299" y="390" as="targetPoint" />
          </mxGeometry>
        </mxCell>
        <mxCell id="7-7wGMtZJuOutos0tf0i-14" value="" style="endArrow=classic;html=1;rounded=0;entryX=0.75;entryY=0;entryDx=0;entryDy=0;exitX=0.75;exitY=1;exitDx=0;exitDy=0;strokeWidth=3;" edge="1" parent="7-7wGMtZJuOutos0tf0i-1" source="7-7wGMtZJuOutos0tf0i-10" target="7-7wGMtZJuOutos0tf0i-5">
          <mxGeometry width="50" height="50" relative="1" as="geometry">
            <mxPoint x="537" y="290" as="sourcePoint" />
            <mxPoint x="499" y="390" as="targetPoint" />
          </mxGeometry>
        </mxCell>
        <mxCell id="7-7wGMtZJuOutos0tf0i-15" value="&lt;div&gt;&lt;font style=&quot;font-size: 24px;&quot;&gt;x+x&lt;/font&gt;&lt;/div&gt;&lt;div&gt;&lt;font style=&quot;font-size: 24px;&quot;&gt;2x&lt;/font&gt;&lt;/div&gt;" style="rounded=0;whiteSpace=wrap;html=1;fillColor=none;strokeColor=none;" vertex="1" parent="7-7wGMtZJuOutos0tf0i-1">
          <mxGeometry x="501" y="209" width="68" height="60" as="geometry" />
        </mxCell>
        <mxCell id="7-7wGMtZJuOutos0tf0i-17" value="&lt;div style=&quot;&quot;&gt;&lt;span style=&quot;background-color: transparent;&quot;&gt;&lt;font style=&quot;font-size: 30px;&quot;&gt;α&lt;/font&gt;&lt;/span&gt;&lt;/div&gt;" style="text;whiteSpace=wrap;html=1;strokeColor=#36393d;align=center;verticalAlign=middle;fillColor=#E5E2DD;fontColor=#696969;fontStyle=1" vertex="1" parent="7-7wGMtZJuOutos0tf0i-1">
          <mxGeometry x="493" y="368.5" width="40" height="40" as="geometry" />
        </mxCell>
        <mxCell id="7-7wGMtZJuOutos0tf0i-18" value="&lt;font style=&quot;font-size: 50px;&quot;&gt;×&lt;/font&gt;" style="whiteSpace=wrap;html=1;aspect=fixed;fillColor=none;strokeWidth=3;" vertex="1" parent="7-7wGMtZJuOutos0tf0i-1">
          <mxGeometry x="280" y="200" width="80" height="80" as="geometry" />
        </mxCell>
        <mxCell id="7-7wGMtZJuOutos0tf0i-19" value="" style="endArrow=classic;html=1;rounded=0;strokeWidth=3;" edge="1" parent="7-7wGMtZJuOutos0tf0i-1" source="7-7wGMtZJuOutos0tf0i-18" target="7-7wGMtZJuOutos0tf0i-4">
          <mxGeometry width="50" height="50" relative="1" as="geometry">
            <mxPoint x="320" y="290" as="sourcePoint" />
            <mxPoint x="339" y="380" as="targetPoint" />
          </mxGeometry>
        </mxCell>
        <mxCell id="7-7wGMtZJuOutos0tf0i-20" value="" style="endArrow=classic;html=1;rounded=0;exitX=0.615;exitY=0.997;exitDx=0;exitDy=0;exitPerimeter=0;strokeWidth=3;entryX=0.25;entryY=0;entryDx=0;entryDy=0;" edge="1" parent="7-7wGMtZJuOutos0tf0i-1" source="7-7wGMtZJuOutos0tf0i-18" target="7-7wGMtZJuOutos0tf0i-5">
          <mxGeometry width="50" height="50" relative="1" as="geometry">
            <mxPoint x="435" y="289" as="sourcePoint" />
            <mxPoint x="440" y="360" as="targetPoint" />
          </mxGeometry>
        </mxCell>
        <mxCell id="aa-HaRWRA7WRWNohnoK_-1" value="&lt;font style=&quot;font-size: 24px;&quot;&gt;(2×x)^2&lt;br&gt;&lt;/font&gt;&lt;div&gt;&lt;font style=&quot;font-size: 24px;&quot;&gt;&lt;span style=&quot;background-color: transparent; color: light-dark(rgb(0, 0, 0), rgb(255, 255, 255));&quot;&gt;(&lt;/span&gt;x+x)^2&lt;/font&gt;&lt;/div&gt;" style="rounded=0;whiteSpace=wrap;html=1;strokeColor=none;fillColor=none;align=left;" vertex="1" parent="7-7wGMtZJuOutos0tf0i-1">
          <mxGeometry x="431.5" y="45" width="85" height="60" as="geometry" />
        </mxCell>
      </root>
    </mxGraphModel>
  </diagram>
  <diagram name="grow" id="2P_I3pAoCmw7otJ7fxDq">
    <mxGraphModel dx="922" dy="581" grid="1" gridSize="10" guides="1" tooltips="1" connect="1" arrows="1" fold="1" page="1" pageScale="1" pageWidth="827" pageHeight="1169" math="0" shadow="0">
      <root>
        <mxCell id="fMMfcygw15daEeFMrE4R-0" />
        <mxCell id="fMMfcygw15daEeFMrE4R-1" parent="fMMfcygw15daEeFMrE4R-0" />
        <mxCell id="fMMfcygw15daEeFMrE4R-2" value="" style="rounded=0;whiteSpace=wrap;html=1;fillColor=none;dashed=1;strokeWidth=3;" vertex="1" parent="fMMfcygw15daEeFMrE4R-1">
          <mxGeometry x="259" y="180" width="241" height="120" as="geometry" />
        </mxCell>
        <mxCell id="fMMfcygw15daEeFMrE4R-3" value="" style="rounded=0;whiteSpace=wrap;html=1;fillColor=none;dashed=1;strokeWidth=3;" vertex="1" parent="fMMfcygw15daEeFMrE4R-1">
          <mxGeometry x="250" y="370" width="120" height="120" as="geometry" />
        </mxCell>
        <mxCell id="fMMfcygw15daEeFMrE4R-4" value="" style="rounded=0;whiteSpace=wrap;html=1;fillColor=none;dashed=1;strokeWidth=3;" vertex="1" parent="fMMfcygw15daEeFMrE4R-1">
          <mxGeometry x="414" y="368.5" width="120" height="120" as="geometry" />
        </mxCell>
        <mxCell id="fMMfcygw15daEeFMrE4R-5" value="" style="rounded=0;whiteSpace=wrap;html=1;fillColor=none;dashed=1;strokeWidth=3;" vertex="1" parent="fMMfcygw15daEeFMrE4R-1">
          <mxGeometry x="273" y="15" width="225" height="120" as="geometry" />
        </mxCell>
        <mxCell id="fMMfcygw15daEeFMrE4R-6" value="&lt;font style=&quot;font-size: 36px;&quot;&gt;2&lt;/font&gt;" style="whiteSpace=wrap;html=1;aspect=fixed;fillColor=none;strokeWidth=3;" vertex="1" parent="fMMfcygw15daEeFMrE4R-1">
          <mxGeometry x="270" y="390" width="80" height="80" as="geometry" />
        </mxCell>
        <mxCell id="fMMfcygw15daEeFMrE4R-7" value="&lt;font style=&quot;font-size: 36px;&quot;&gt;x&lt;/font&gt;" style="whiteSpace=wrap;html=1;aspect=fixed;fillColor=none;strokeWidth=3;" vertex="1" parent="fMMfcygw15daEeFMrE4R-1">
          <mxGeometry x="435" y="388.5" width="80" height="80" as="geometry" />
        </mxCell>
        <mxCell id="fMMfcygw15daEeFMrE4R-8" value="&lt;span style=&quot;font-size: 50px;&quot;&gt;^&lt;/span&gt;" style="whiteSpace=wrap;html=1;aspect=fixed;fillColor=none;strokeWidth=3;" vertex="1" parent="fMMfcygw15daEeFMrE4R-1">
          <mxGeometry x="293" y="35" width="80" height="80" as="geometry" />
        </mxCell>
        <mxCell id="fMMfcygw15daEeFMrE4R-9" value="&lt;font style=&quot;font-size: 50px;&quot;&gt;+&lt;/font&gt;" style="whiteSpace=wrap;html=1;aspect=fixed;fillColor=none;strokeWidth=3;" vertex="1" parent="fMMfcygw15daEeFMrE4R-1">
          <mxGeometry x="401" y="199" width="80" height="80" as="geometry" />
        </mxCell>
        <mxCell id="fMMfcygw15daEeFMrE4R-10" value="" style="endArrow=classic;html=1;rounded=0;entryX=0.408;entryY=0;entryDx=0;entryDy=0;exitX=0.75;exitY=1;exitDx=0;exitDy=0;entryPerimeter=0;curved=1;strokeWidth=3;" edge="1" parent="fMMfcygw15daEeFMrE4R-1" source="fMMfcygw15daEeFMrE4R-8" target="fMMfcygw15daEeFMrE4R-3">
          <mxGeometry width="50" height="50" relative="1" as="geometry">
            <mxPoint x="331" y="200" as="sourcePoint" />
            <mxPoint x="241" y="180" as="targetPoint" />
            <Array as="points">
              <mxPoint x="270" y="160" />
              <mxPoint x="220" y="230" />
              <mxPoint x="240" y="310" />
            </Array>
          </mxGeometry>
        </mxCell>
        <mxCell id="fMMfcygw15daEeFMrE4R-11" value="" style="endArrow=classic;html=1;rounded=0;entryX=0.478;entryY=-0.031;entryDx=0;entryDy=0;exitX=0.25;exitY=1;exitDx=0;exitDy=0;entryPerimeter=0;strokeWidth=3;" edge="1" parent="fMMfcygw15daEeFMrE4R-1" source="fMMfcygw15daEeFMrE4R-8" target="fMMfcygw15daEeFMrE4R-2">
          <mxGeometry width="50" height="50" relative="1" as="geometry">
            <mxPoint x="311" y="130" as="sourcePoint" />
            <mxPoint x="515.56" y="174" as="targetPoint" />
          </mxGeometry>
        </mxCell>
        <mxCell id="fMMfcygw15daEeFMrE4R-12" value="" style="endArrow=classic;html=1;rounded=0;entryX=0.25;entryY=0;entryDx=0;entryDy=0;exitX=0.357;exitY=1.006;exitDx=0;exitDy=0;exitPerimeter=0;strokeWidth=3;" edge="1" parent="fMMfcygw15daEeFMrE4R-1" source="fMMfcygw15daEeFMrE4R-9" target="fMMfcygw15daEeFMrE4R-4">
          <mxGeometry width="50" height="50" relative="1" as="geometry">
            <mxPoint x="309" y="290" as="sourcePoint" />
            <mxPoint x="299" y="390" as="targetPoint" />
          </mxGeometry>
        </mxCell>
        <mxCell id="fMMfcygw15daEeFMrE4R-13" value="" style="endArrow=classic;html=1;rounded=0;entryX=0.75;entryY=0;entryDx=0;entryDy=0;exitX=0.75;exitY=1;exitDx=0;exitDy=0;strokeWidth=3;" edge="1" parent="fMMfcygw15daEeFMrE4R-1" source="fMMfcygw15daEeFMrE4R-9" target="fMMfcygw15daEeFMrE4R-4">
          <mxGeometry width="50" height="50" relative="1" as="geometry">
            <mxPoint x="537" y="290" as="sourcePoint" />
            <mxPoint x="499" y="390" as="targetPoint" />
          </mxGeometry>
        </mxCell>
        <mxCell id="fMMfcygw15daEeFMrE4R-14" value="&lt;div&gt;&lt;font style=&quot;font-size: 24px;&quot;&gt;x+x&lt;/font&gt;&lt;/div&gt;&lt;div&gt;&lt;font style=&quot;font-size: 24px;&quot;&gt;2x&lt;/font&gt;&lt;/div&gt;" style="rounded=0;whiteSpace=wrap;html=1;fillColor=none;strokeColor=none;" vertex="1" parent="fMMfcygw15daEeFMrE4R-1">
          <mxGeometry x="501" y="209" width="68" height="60" as="geometry" />
        </mxCell>
        <mxCell id="fMMfcygw15daEeFMrE4R-16" value="&lt;font style=&quot;font-size: 50px;&quot;&gt;×&lt;/font&gt;" style="whiteSpace=wrap;html=1;aspect=fixed;fillColor=none;strokeWidth=3;" vertex="1" parent="fMMfcygw15daEeFMrE4R-1">
          <mxGeometry x="280" y="200" width="80" height="80" as="geometry" />
        </mxCell>
        <mxCell id="fMMfcygw15daEeFMrE4R-17" value="" style="endArrow=classic;html=1;rounded=0;strokeWidth=3;" edge="1" parent="fMMfcygw15daEeFMrE4R-1" source="fMMfcygw15daEeFMrE4R-16" target="fMMfcygw15daEeFMrE4R-3">
          <mxGeometry width="50" height="50" relative="1" as="geometry">
            <mxPoint x="320" y="290" as="sourcePoint" />
            <mxPoint x="339" y="380" as="targetPoint" />
          </mxGeometry>
        </mxCell>
        <mxCell id="fMMfcygw15daEeFMrE4R-18" value="" style="endArrow=classic;html=1;rounded=0;exitX=0.615;exitY=0.997;exitDx=0;exitDy=0;exitPerimeter=0;strokeWidth=3;entryX=0.25;entryY=0;entryDx=0;entryDy=0;" edge="1" parent="fMMfcygw15daEeFMrE4R-1" source="fMMfcygw15daEeFMrE4R-16" target="fMMfcygw15daEeFMrE4R-4">
          <mxGeometry width="50" height="50" relative="1" as="geometry">
            <mxPoint x="435" y="289" as="sourcePoint" />
            <mxPoint x="440" y="360" as="targetPoint" />
          </mxGeometry>
        </mxCell>
        <mxCell id="fMMfcygw15daEeFMrE4R-19" value="&lt;font style=&quot;font-size: 24px;&quot;&gt;(2×x)^2&lt;br&gt;&lt;/font&gt;&lt;div&gt;&lt;font style=&quot;font-size: 24px;&quot;&gt;&lt;span style=&quot;background-color: transparent; color: light-dark(rgb(0, 0, 0), rgb(255, 255, 255));&quot;&gt;(&lt;/span&gt;x+x)^2&lt;/font&gt;&lt;/div&gt;&lt;div&gt;&lt;font style=&quot;font-size: 24px;&quot;&gt;(2×x)&lt;/font&gt;&lt;span style=&quot;font-size: 24px; background-color: transparent; color: light-dark(rgb(0, 0, 0), rgb(255, 255, 255));&quot;&gt;×&lt;/span&gt;&lt;span style=&quot;background-color: transparent; color: light-dark(rgb(0, 0, 0), rgb(255, 255, 255)); font-size: 24px;&quot;&gt;(2×x)&lt;/span&gt;&lt;/div&gt;&lt;div&gt;&lt;span style=&quot;background-color: transparent; color: light-dark(rgb(0, 0, 0), rgb(255, 255, 255)); font-size: 24px;&quot;&gt;(x+x)&lt;/span&gt;&lt;span style=&quot;font-size: 24px; background-color: transparent; color: light-dark(rgb(0, 0, 0), rgb(255, 255, 255));&quot;&gt;×(x+x)&lt;/span&gt;&lt;/div&gt;" style="rounded=0;whiteSpace=wrap;html=1;strokeColor=none;fillColor=none;align=left;" vertex="1" parent="fMMfcygw15daEeFMrE4R-1">
          <mxGeometry x="501" y="7.5" width="149" height="135" as="geometry" />
        </mxCell>
        <mxCell id="2GprO1i2OEWs5_5mtoCk-0" value="&lt;span style=&quot;font-size: 50px;&quot;&gt;×&lt;/span&gt;" style="whiteSpace=wrap;html=1;aspect=fixed;fillColor=none;strokeWidth=3;" vertex="1" parent="fMMfcygw15daEeFMrE4R-1">
          <mxGeometry x="389" y="35" width="80" height="80" as="geometry" />
        </mxCell>
        <mxCell id="2GprO1i2OEWs5_5mtoCk-1" value="" style="endArrow=classic;html=1;rounded=0;entryX=0.552;entryY=-0.01;entryDx=0;entryDy=0;exitX=0.5;exitY=1;exitDx=0;exitDy=0;strokeWidth=3;entryPerimeter=0;" edge="1" parent="fMMfcygw15daEeFMrE4R-1" source="2GprO1i2OEWs5_5mtoCk-0" target="fMMfcygw15daEeFMrE4R-2">
          <mxGeometry width="50" height="50" relative="1" as="geometry">
            <mxPoint x="414" y="140" as="sourcePoint" />
            <mxPoint x="428" y="230" as="targetPoint" />
          </mxGeometry>
        </mxCell>
        <mxCell id="2GprO1i2OEWs5_5mtoCk-2" value="" style="endArrow=classic;html=1;rounded=0;entryX=0.75;entryY=0;entryDx=0;entryDy=0;exitX=0.5;exitY=1;exitDx=0;exitDy=0;strokeWidth=3;" edge="1" parent="fMMfcygw15daEeFMrE4R-1" source="2GprO1i2OEWs5_5mtoCk-0" target="fMMfcygw15daEeFMrE4R-2">
          <mxGeometry width="50" height="50" relative="1" as="geometry">
            <mxPoint x="439" y="125" as="sourcePoint" />
            <mxPoint x="402" y="189" as="targetPoint" />
          </mxGeometry>
        </mxCell>
      </root>
    </mxGraphModel>
  </diagram>
  <diagram name="info" id="rMwYUSzbPgHfSW04CNg2">
    <mxGraphModel dx="922" dy="581" grid="1" gridSize="10" guides="1" tooltips="1" connect="1" arrows="1" fold="1" page="1" pageScale="1" pageWidth="827" pageHeight="1169" math="0" shadow="0">
      <root>
        <mxCell id="tVyXDmFr7gUWm2TTDow4-0" />
        <mxCell id="tVyXDmFr7gUWm2TTDow4-1" parent="tVyXDmFr7gUWm2TTDow4-0" />
        <mxCell id="tVyXDmFr7gUWm2TTDow4-2" value="" style="rounded=0;whiteSpace=wrap;html=1;fillColor=none;dashed=1;strokeWidth=3;" vertex="1" parent="tVyXDmFr7gUWm2TTDow4-1">
          <mxGeometry x="259" y="180" width="241" height="120" as="geometry" />
        </mxCell>
        <mxCell id="tVyXDmFr7gUWm2TTDow4-3" value="" style="rounded=0;whiteSpace=wrap;html=1;fillColor=none;dashed=1;strokeWidth=3;" vertex="1" parent="tVyXDmFr7gUWm2TTDow4-1">
          <mxGeometry x="250" y="370" width="120" height="120" as="geometry" />
        </mxCell>
        <mxCell id="tVyXDmFr7gUWm2TTDow4-4" value="" style="rounded=0;whiteSpace=wrap;html=1;fillColor=none;dashed=1;strokeWidth=3;" vertex="1" parent="tVyXDmFr7gUWm2TTDow4-1">
          <mxGeometry x="411" y="368.5" width="120" height="120" as="geometry" />
        </mxCell>
        <mxCell id="tVyXDmFr7gUWm2TTDow4-5" value="" style="rounded=0;whiteSpace=wrap;html=1;fillColor=none;dashed=1;strokeWidth=3;" vertex="1" parent="tVyXDmFr7gUWm2TTDow4-1">
          <mxGeometry x="273" y="15" width="225" height="120" as="geometry" />
        </mxCell>
        <mxCell id="tVyXDmFr7gUWm2TTDow4-6" value="&lt;font style=&quot;font-size: 36px;&quot;&gt;2&lt;/font&gt;" style="whiteSpace=wrap;html=1;aspect=fixed;fillColor=none;strokeWidth=3;" vertex="1" parent="tVyXDmFr7gUWm2TTDow4-1">
          <mxGeometry x="270" y="390" width="80" height="80" as="geometry" />
        </mxCell>
        <mxCell id="tVyXDmFr7gUWm2TTDow4-7" value="&lt;font style=&quot;font-size: 36px;&quot;&gt;x&lt;/font&gt;" style="whiteSpace=wrap;html=1;aspect=fixed;fillColor=none;strokeWidth=3;" vertex="1" parent="tVyXDmFr7gUWm2TTDow4-1">
          <mxGeometry x="432" y="388.5" width="80" height="80" as="geometry" />
        </mxCell>
        <mxCell id="tVyXDmFr7gUWm2TTDow4-8" value="&lt;span style=&quot;font-size: 50px;&quot;&gt;^&lt;/span&gt;" style="whiteSpace=wrap;html=1;aspect=fixed;fillColor=none;strokeWidth=3;" vertex="1" parent="tVyXDmFr7gUWm2TTDow4-1">
          <mxGeometry x="293" y="35" width="80" height="80" as="geometry" />
        </mxCell>
        <mxCell id="tVyXDmFr7gUWm2TTDow4-9" value="&lt;font style=&quot;font-size: 50px;&quot;&gt;+&lt;/font&gt;" style="whiteSpace=wrap;html=1;aspect=fixed;fillColor=none;strokeWidth=3;" vertex="1" parent="tVyXDmFr7gUWm2TTDow4-1">
          <mxGeometry x="401" y="199" width="80" height="80" as="geometry" />
        </mxCell>
        <mxCell id="tVyXDmFr7gUWm2TTDow4-10" value="" style="endArrow=classic;html=1;rounded=0;entryX=0.408;entryY=0;entryDx=0;entryDy=0;exitX=0.75;exitY=1;exitDx=0;exitDy=0;entryPerimeter=0;curved=1;strokeWidth=3;" edge="1" parent="tVyXDmFr7gUWm2TTDow4-1" source="tVyXDmFr7gUWm2TTDow4-8" target="tVyXDmFr7gUWm2TTDow4-3">
          <mxGeometry width="50" height="50" relative="1" as="geometry">
            <mxPoint x="331" y="200" as="sourcePoint" />
            <mxPoint x="241" y="180" as="targetPoint" />
            <Array as="points">
              <mxPoint x="270" y="160" />
              <mxPoint x="220" y="230" />
              <mxPoint x="240" y="310" />
            </Array>
          </mxGeometry>
        </mxCell>
        <mxCell id="tVyXDmFr7gUWm2TTDow4-11" value="" style="endArrow=classic;html=1;rounded=0;entryX=0.478;entryY=-0.031;entryDx=0;entryDy=0;exitX=0.25;exitY=1;exitDx=0;exitDy=0;entryPerimeter=0;strokeWidth=3;" edge="1" parent="tVyXDmFr7gUWm2TTDow4-1" source="tVyXDmFr7gUWm2TTDow4-8" target="tVyXDmFr7gUWm2TTDow4-2">
          <mxGeometry width="50" height="50" relative="1" as="geometry">
            <mxPoint x="311" y="130" as="sourcePoint" />
            <mxPoint x="515.56" y="174" as="targetPoint" />
          </mxGeometry>
        </mxCell>
        <mxCell id="tVyXDmFr7gUWm2TTDow4-12" value="" style="endArrow=classic;html=1;rounded=0;entryX=0.25;entryY=0;entryDx=0;entryDy=0;exitX=0.357;exitY=1.006;exitDx=0;exitDy=0;exitPerimeter=0;strokeWidth=3;" edge="1" parent="tVyXDmFr7gUWm2TTDow4-1" source="tVyXDmFr7gUWm2TTDow4-9" target="tVyXDmFr7gUWm2TTDow4-4">
          <mxGeometry width="50" height="50" relative="1" as="geometry">
            <mxPoint x="309" y="290" as="sourcePoint" />
            <mxPoint x="299" y="390" as="targetPoint" />
          </mxGeometry>
        </mxCell>
        <mxCell id="tVyXDmFr7gUWm2TTDow4-13" value="" style="endArrow=classic;html=1;rounded=0;entryX=0.75;entryY=0;entryDx=0;entryDy=0;exitX=0.75;exitY=1;exitDx=0;exitDy=0;strokeWidth=3;" edge="1" parent="tVyXDmFr7gUWm2TTDow4-1" source="tVyXDmFr7gUWm2TTDow4-9" target="tVyXDmFr7gUWm2TTDow4-4">
          <mxGeometry width="50" height="50" relative="1" as="geometry">
            <mxPoint x="537" y="290" as="sourcePoint" />
            <mxPoint x="499" y="390" as="targetPoint" />
          </mxGeometry>
        </mxCell>
        <mxCell id="tVyXDmFr7gUWm2TTDow4-15" value="&lt;font style=&quot;font-size: 50px;&quot;&gt;×&lt;/font&gt;" style="whiteSpace=wrap;html=1;aspect=fixed;fillColor=none;strokeWidth=3;" vertex="1" parent="tVyXDmFr7gUWm2TTDow4-1">
          <mxGeometry x="280" y="200" width="80" height="80" as="geometry" />
        </mxCell>
        <mxCell id="tVyXDmFr7gUWm2TTDow4-16" value="" style="endArrow=classic;html=1;rounded=0;strokeWidth=3;" edge="1" parent="tVyXDmFr7gUWm2TTDow4-1" source="tVyXDmFr7gUWm2TTDow4-15" target="tVyXDmFr7gUWm2TTDow4-3">
          <mxGeometry width="50" height="50" relative="1" as="geometry">
            <mxPoint x="320" y="290" as="sourcePoint" />
            <mxPoint x="339" y="380" as="targetPoint" />
          </mxGeometry>
        </mxCell>
        <mxCell id="tVyXDmFr7gUWm2TTDow4-17" value="" style="endArrow=classic;html=1;rounded=0;exitX=0.615;exitY=0.997;exitDx=0;exitDy=0;exitPerimeter=0;strokeWidth=3;entryX=0.25;entryY=0;entryDx=0;entryDy=0;" edge="1" parent="tVyXDmFr7gUWm2TTDow4-1" source="tVyXDmFr7gUWm2TTDow4-15" target="tVyXDmFr7gUWm2TTDow4-4">
          <mxGeometry width="50" height="50" relative="1" as="geometry">
            <mxPoint x="435" y="289" as="sourcePoint" />
            <mxPoint x="440" y="360" as="targetPoint" />
          </mxGeometry>
        </mxCell>
        <mxCell id="tVyXDmFr7gUWm2TTDow4-18" value="&lt;span style=&quot;font-size: 24px;&quot;&gt;&lt;font style=&quot;color: rgb(204, 0, 0);&quot;&gt;positive&lt;/font&gt;&lt;/span&gt;&lt;div&gt;&lt;span style=&quot;font-size: 24px;&quot;&gt;&lt;font style=&quot;color: rgb(51, 51, 255);&quot;&gt;monotonic increasing&lt;/font&gt;&lt;/span&gt;&lt;/div&gt;" style="rounded=0;whiteSpace=wrap;html=1;strokeColor=light-dark(#000000, #575700);fillColor=none;align=center;strokeWidth=3;" vertex="1" parent="tVyXDmFr7gUWm2TTDow4-1">
          <mxGeometry x="510" y="15" width="130" height="80" as="geometry" />
        </mxCell>
        <mxCell id="tVyXDmFr7gUWm2TTDow4-19" value="&lt;span style=&quot;font-size: 50px;&quot;&gt;×&lt;/span&gt;" style="whiteSpace=wrap;html=1;aspect=fixed;fillColor=none;strokeWidth=3;" vertex="1" parent="tVyXDmFr7gUWm2TTDow4-1">
          <mxGeometry x="389" y="35" width="80" height="80" as="geometry" />
        </mxCell>
        <mxCell id="tVyXDmFr7gUWm2TTDow4-20" value="" style="endArrow=classic;html=1;rounded=0;entryX=0.552;entryY=-0.01;entryDx=0;entryDy=0;exitX=0.5;exitY=1;exitDx=0;exitDy=0;strokeWidth=3;entryPerimeter=0;" edge="1" parent="tVyXDmFr7gUWm2TTDow4-1" source="tVyXDmFr7gUWm2TTDow4-19" target="tVyXDmFr7gUWm2TTDow4-2">
          <mxGeometry width="50" height="50" relative="1" as="geometry">
            <mxPoint x="414" y="140" as="sourcePoint" />
            <mxPoint x="428" y="230" as="targetPoint" />
          </mxGeometry>
        </mxCell>
        <mxCell id="tVyXDmFr7gUWm2TTDow4-21" value="" style="endArrow=classic;html=1;rounded=0;entryX=0.75;entryY=0;entryDx=0;entryDy=0;exitX=0.5;exitY=1;exitDx=0;exitDy=0;strokeWidth=3;" edge="1" parent="tVyXDmFr7gUWm2TTDow4-1" source="tVyXDmFr7gUWm2TTDow4-19" target="tVyXDmFr7gUWm2TTDow4-2">
          <mxGeometry width="50" height="50" relative="1" as="geometry">
            <mxPoint x="439" y="125" as="sourcePoint" />
            <mxPoint x="402" y="189" as="targetPoint" />
          </mxGeometry>
        </mxCell>
        <mxCell id="pBpKjjhipSv_fU1lvR8f-0" value="&lt;span style=&quot;color: rgb(51, 51, 255); font-size: 24px;&quot;&gt;monotonic increasing&lt;/span&gt;" style="rounded=0;whiteSpace=wrap;html=1;strokeColor=#000000;fillColor=none;align=center;strokeWidth=3;" vertex="1" parent="tVyXDmFr7gUWm2TTDow4-1">
          <mxGeometry x="510" y="180" width="130" height="77.5" as="geometry" />
        </mxCell>
        <mxCell id="pBpKjjhipSv_fU1lvR8f-1" value="&lt;span style=&quot;font-size: 24px;&quot;&gt;&lt;font style=&quot;color: light-dark(rgb(255, 0, 0), rgb(168, 168, 255));&quot;&gt;m/s&lt;/font&gt;&lt;/span&gt;" style="rounded=0;whiteSpace=wrap;html=1;strokeColor=#000000;fillColor=none;align=center;strokeWidth=3;verticalAlign=middle;" vertex="1" parent="tVyXDmFr7gUWm2TTDow4-1">
          <mxGeometry x="540" y="407" width="60" height="46" as="geometry" />
        </mxCell>
        <mxCell id="pBpKjjhipSv_fU1lvR8f-2" value="&lt;span style=&quot;font-size: 24px;&quot;&gt;&lt;font style=&quot;color: light-dark(rgb(255, 0, 0), rgb(168, 168, 255));&quot;&gt;m/s&lt;/font&gt;&lt;/span&gt;" style="rounded=0;whiteSpace=wrap;html=1;strokeColor=#000000;fillColor=none;align=center;strokeWidth=3;verticalAlign=middle;" vertex="1" parent="tVyXDmFr7gUWm2TTDow4-1">
          <mxGeometry x="540" y="265" width="60" height="46" as="geometry" />
        </mxCell>
        <mxCell id="pBpKjjhipSv_fU1lvR8f-3" value="&lt;span style=&quot;font-size: 24px;&quot;&gt;&lt;font style=&quot;color: light-dark(rgb(255, 0, 0), rgb(168, 168, 255));&quot;&gt;m&lt;sup&gt;2&lt;/sup&gt;/s&lt;sup&gt;2&lt;/sup&gt;&lt;/font&gt;&lt;/span&gt;" style="rounded=0;whiteSpace=wrap;html=1;strokeColor=#000000;fillColor=none;align=center;strokeWidth=3;verticalAlign=middle;" vertex="1" parent="tVyXDmFr7gUWm2TTDow4-1">
          <mxGeometry x="540" y="103" width="70" height="46" as="geometry" />
        </mxCell>
      </root>
    </mxGraphModel>
  </diagram>
</mxfile>
